<svg xmlns="http://www.w3.org/2000/svg" viewBox="0 0 310 309.32"><defs><style>.a{fill:#444;}</style></defs><path class="a" d="M72.16,99.39H9.93a5,5,0,0,0-5,5V304.32a5,5,0,0,0,5,5H72.16a5,5,0,0,0,5-5V104.39A5,5,0,0,0,72.16,99.39Z"/><path class="a" d="M41.07,0a41,41,0,1,0,41,41A41.09,41.09,0,0,0,41.07,0Z"/><path class="a" d="M230.45,94.42c-25,0-43.47,10.75-54.68,23v-13a5,5,0,0,0-5-5H111.18a5,5,0,0,0-5,5V304.32a5,5,0,0,0,5,5h62.09a5,5,0,0,0,5-5V205.4c0-33.33,9.06-46.32,32.29-46.32,25.31,0,27.32,20.82,27.32,48v97.21a5,5,0,0,0,5,5H305a5,5,0,0,0,5-5V194.65C310,145.09,300.55,94.42,230.45,94.42Z"/></svg>