<svg xmlns="http://www.w3.org/2000/svg" viewBox="0 0 185.15 426.49"><defs><style>.a{fill:#444;}</style></defs><path class="a" d="M183.09,390.37c-4.38,4.77-8.77,9.29-13.41,13.93A116.52,116.52,0,0,1,132.93,424a125.39,125.39,0,0,1-59.45-2.45A46.86,46.86,0,0,1,45.1,398.11a398.89,398.89,0,0,1-1-366.5,53,53,0,0,1,33-26.7C87.66,2.21,98.24.27,108.68,0a116.17,116.17,0,0,1,67.83,20.77,9.28,9.28,0,0,1,4,7.73A8.65,8.65,0,0,1,179,33.16l-49.52,82.66a9.17,9.17,0,0,1-12.38,3.35L90.5,104.6a8.91,8.91,0,0,0-4.64-1.16A9.3,9.3,0,0,0,76.57,113h0V311.19a9.3,9.3,0,0,0,9.29,9.54A10.46,10.46,0,0,0,91,319.19L106,309a9.7,9.7,0,0,1,12,1.29l64.73,67.44a9.78,9.78,0,0,1,2.45,6.45A11.82,11.82,0,0,1,183.09,390.37Z" transform="translate(0 0)"/></svg>