<svg xmlns="http://www.w3.org/2000/svg" viewBox="0 0 409.61 380.81"><defs><style>.a{fill:#8f8f8f;}</style></defs><path class="a" d="M373,5.39c9.93-8.7,24.21-6.65,31.89,4.61a27.81,27.81,0,0,1-4.09,35.84l-172,149.76a35.65,35.65,0,0,1-47.83,0L8.85,45.89A27.79,27.79,0,0,1,4.76,10c7.68-11.16,22-13.21,31.89-4.61L204.8,151.72,373,5.44Z"/><path class="a" d="M373,181.39c9.93-8.7,24.21-6.65,31.89,4.61a27.81,27.81,0,0,1-4.09,35.84l-172,149.76a35.65,35.65,0,0,1-47.83,0L8.85,221.89A27.79,27.79,0,0,1,4.76,186c7.68-11.16,22-13.21,31.89-4.61L204.8,327.72,373,181.44Z"/></svg>